<!DOCTYPE svg PUBLIC "-//W3C//DTD SVG 20010904//EN" "http://www.w3.org/TR/2001/REC-SVG-20010904/DTD/svg10.dtd">
<svg version="1.0" xmlns="http://www.w3.org/2000/svg" width="59px" height="55px" viewBox="0 0 590 550" preserveAspectRatio="xMidYMid meet">
<g id="layer101" fill="#f26522" stroke="none">
 <path d="M82 538 c-13 -13 -17 -215 -4 -233 19 -28 202 -175 217 -175 15 0 198 147 217 175 13 18 9 220 -4 233 -7 7 -40 12 -80 12 l-68 0 0 -95 0 -95 -65 0 -65 0 0 95 0 95 -68 0 c-40 0 -73 -5 -80 -12z"/>
 <path d="M3 273 c-5 -12 9 -31 50 -67 l56 -51 3 -65 c3 -59 5 -65 26 -68 28 -4 52 14 52 40 0 17 8 13 46 -21 26 -23 52 -41 59 -41 19 0 295 250 295 266 0 40 -36 19 -161 -93 -72 -65 -134 -117 -138 -115 -3 2 -63 55 -133 118 -70 63 -132 114 -138 114 -6 0 -14 -8 -17 -17z"/>
 </g>

</svg>