<!DOCTYPE svg PUBLIC "-//W3C//DTD SVG 20010904//EN" "http://www.w3.org/TR/2001/REC-SVG-20010904/DTD/svg10.dtd">
<svg version="1.0" xmlns="http://www.w3.org/2000/svg" width="79px" height="61px" viewBox="0 0 790 610" preserveAspectRatio="xMidYMid meet">
<g id="layer101" fill="#f26522" stroke="none">
 <path d="M0 512 l0 -98 65 -47 c48 -35 65 -53 65 -70 0 -19 28 -45 131 -121 72 -53 134 -96 138 -94 4 2 64 45 134 97 100 74 127 99 127 118 0 17 17 35 65 70 l65 47 0 98 0 98 -395 0 -395 0 0 -98z m130 -37 c0 -52 -3 -95 -6 -95 -3 0 -24 14 -45 31 -38 30 -39 32 -39 95 l0 64 45 0 45 0 0 -95z m210 40 l0 -55 55 0 55 0 0 55 0 55 85 0 85 0 0 -137 -1 -138 -108 -80 c-59 -44 -111 -80 -116 -80 -5 0 -57 36 -116 80 l-108 80 -1 138 0 137 85 0 85 0 0 -55z m70 20 c0 -24 -5 -35 -15 -35 -10 0 -15 11 -15 35 0 24 5 35 15 35 10 0 15 -11 15 -35z m340 -29 c0 -63 -1 -65 -39 -95 -21 -17 -42 -31 -45 -31 -3 0 -6 43 -6 95 l0 95 45 0 45 0 0 -64z"/>
 <path d="M3 304 c-3 -8 -2 -19 3 -24 35 -32 379 -280 388 -280 24 0 391 280 391 298 0 9 -7 16 -16 16 -9 -1 -96 -62 -195 -136 l-179 -135 -184 139 c-101 76 -188 138 -193 138 -5 0 -11 -7 -15 -16z"/>
 </g>

</svg>